<?xml version="1.0" encoding="UTF-8"?>
<svg id="_圖層_1" data-name="圖層_1" xmlns="http://www.w3.org/2000/svg" xmlns:xlink="http://www.w3.org/1999/xlink" version="1.1" viewBox="0 0 841.9 595.3">
  <!-- Generator: Adobe Illustrator 29.0.1, SVG Export Plug-In . SVG Version: 2.1.0 Build 192)  -->
  <defs>
    <style>
      .st0, .st1 {
        fill: none;
      }

      .st2 {
        fill: #921d22;
      }

      .st1 {
        stroke: #921d22;
        stroke-width: 2px;
      }

      .st3 {
        fill: #460407;
      }

      .st4 {
        clip-path: url(#clippath);
      }
    </style>
    <clipPath id="clippath">
      <path class="st0" d="M389.7,333.8l31.6-31.6,10.8,10.8c-7.7,8.7-11.9,20-11.9,31.6,0,.3,0,.7,0,1.1-11.3-.2-22.1-4.4-30.6-11.9ZM426.7,344.6c0-9.9,3.5-19.5,10-27.1l16.3,16.3c-7.4,6.5-16.5,10.5-26.3,11.6,0-.3,0-.5,0-.8ZM441.2,313c7.5-6.5,17.1-10,27.1-10h.8c-1.1,9.7-5.1,18.9-11.6,26.3l-16.3-16.3ZM373.3,298.7c.4,0,.7,0,1.1,0,11.6,0,22.9-4.2,31.6-11.9l10.8,10.8-31.6,31.6c-7.4-8.5-11.6-19.3-11.9-30.6ZM425.9,297.7l31.6-31.6c7.4,8.5,11.6,19.3,11.9,30.6-.4,0-.7,0-1.1,0-11.6,0-22.9,4.2-31.6,11.9l-10.8-10.8ZM410.5,282.3c7.7-8.7,11.9-20,11.9-31.6,0-.4,0-.7,0-1.1,11.3.2,22.1,4.4,30.6,11.9l-31.6,31.6-10.8-10.8ZM373.6,292.3c1.1-9.7,5.1-18.9,11.6-26.3l16.3,16.3c-7.5,6.5-17.1,10-27.1,10-.3,0-.5,0-.8,0ZM389.7,261.5c7.4-6.5,16.5-10.5,26.3-11.6v.8c0,9.9-3.5,19.5-10,27.1l-16.3-16.3Z"/>
    </clipPath>
  </defs>
  <g id="Group_88">
    <g id="Rectangle_72">
      <rect class="st3" x="359.3" y="235.7" width="124" height="124"/>
      <rect class="st1" x="360.3" y="236.7" width="122" height="122"/>
    </g>
    <g class="st4">
      <g id="Mask_Group_14">
        <rect id="Rectangle_65" class="st2" x="373.3" y="249.7" width="96" height="96"/>
      </g>
    </g>
  </g>
</svg>