<?xml version="1.0" encoding="UTF-8"?>
<svg id="_圖層_1" data-name="圖層_1" xmlns="http://www.w3.org/2000/svg" xmlns:xlink="http://www.w3.org/1999/xlink" version="1.1" viewBox="0 0 841.9 595.3">
  <!-- Generator: Adobe Illustrator 29.0.1, SVG Export Plug-In . SVG Version: 2.1.0 Build 192)  -->
  <defs>
    <style>
      .st0, .st1 {
        fill: none;
      }

      .st2 {
        fill: #921d22;
      }

      .st1 {
        stroke: #921d22;
        stroke-width: 2px;
      }

      .st3 {
        fill: #460407;
      }

      .st4 {
        clip-path: url(#clippath);
      }
    </style>
    <clipPath id="clippath">
      <rect class="st0" x="373.3" y="249.7" width="97" height="93"/>
    </clipPath>
  </defs>
  <g id="Group_93">
    <g id="Rectangle_68">
      <rect class="st3" x="359.3" y="235.7" width="124" height="124"/>
      <rect class="st1" x="360.3" y="236.7" width="122" height="122"/>
    </g>
    <g class="st4">
      <g id="Mask_Group_9">
        <path id="Rectangle_61" class="st2" d="M433.3,254.7c-.6,0-1,.4-1,1v81c0,.6.4,1,1,1h31c.6,0,1-.4,1-1v-81c0-.6-.4-1-1-1h-31M433.3,249.7h31c3.3,0,6,2.7,6,6v81c0,3.3-2.7,6-6,6h-31c-3.3,0-6-2.7-6-6v-81c0-3.3,2.7-6,6-6Z"/>
        <path id="Union_7" class="st2" d="M377.8,342.7c-2.5,0-4.5-2.1-4.5-4.7v-83.7c0-2.5,2-4.6,4.5-4.7h57c2.5,0,4.5,2.1,4.5,4.7v83.7c0,2.5-2,4.6-4.5,4.7h-57ZM399,324.9c-.1.5,0,1.1.3,1.6.3.4.9.7,1.4.7h11.2c.6,0,1.1-.3,1.4-.7.3-.4.5-1,.3-1.6-.5-2.3-.9-4.6-1.2-7,1.7,1,3.7,1.5,5.7,1.4,2.8-.3,5.3-2.1,7.3-5.2,3-4.7,2.1-10.3-2.5-14.8l-14.3-14.6c-1.4-1.2-3.5-1.2-4.9,0l-14.5,14.6c-4.4,4.7-5.2,10.2-2.3,14.8,2.1,3.2,4.5,4.9,7.4,5.2,2,.1,4-.3,5.7-1.4-.3,2.3-.7,4.7-1.2,7ZM385.4,256.9l-6,18.6c-.3.8.2,1.7.9,2,.8.3,1.6-.2,1.9-.9,0,0,0,0,0,0l1.7-5.1h5.8l1.7,5.1c.2.6.8,1.1,1.4,1.1.2,0,.3,0,.5,0,.8-.3,1.2-1.2.9-2l-6-18.6c-.2-.8-1.1-1.2-1.8-1-.5.1-.9.5-1,1h0ZM384.9,268.3l1.9-5.9,1.9,5.9h-3.8Z"/>
      </g>
    </g>
  </g>
</svg>