<?xml version="1.0" encoding="UTF-8"?>
<svg id="_圖層_1" data-name="圖層_1" xmlns="http://www.w3.org/2000/svg" xmlns:xlink="http://www.w3.org/1999/xlink" version="1.1" viewBox="0 0 841.9 595.3">
  <!-- Generator: Adobe Illustrator 29.0.1, SVG Export Plug-In . SVG Version: 2.1.0 Build 192)  -->
  <defs>
    <style>
      .st0, .st1 {
        fill: none;
      }

      .st2 {
        fill: #921d22;
      }

      .st1 {
        stroke: #921d22;
        stroke-width: 2px;
      }

      .st3 {
        fill: #460407;
      }

      .st4 {
        clip-path: url(#clippath);
      }
    </style>
    <clipPath id="clippath">
      <rect class="st0" x="375.3" y="249.7" width="96" height="96"/>
    </clipPath>
  </defs>
  <g id="Group_91">
    <g id="Rectangle_67">
      <rect class="st3" x="359.3" y="235.7" width="124" height="124"/>
      <rect class="st1" x="360.3" y="236.7" width="122" height="122"/>
    </g>
    <g class="st4">
      <g id="Mask_Group_16">
        <path id="casino-slot-lucky-seven-svgrepo-com" class="st2" d="M467.2,264.1l-10.3-13.4c-1.1-1.1-2.7-1.3-4.1-.7l-4.1,2.1c-9.8,4.8-21.1,5.8-31.5,2.7-4.5-1.2-9.1-1.8-13.7-1.7h-21.3c-1.8-.1-3.3,1.3-3.4,3,0,.1,0,.3,0,.4v39.8c-.1,1.8,1.3,3.3,3,3.4.1,0,.3,0,.4,0h13.7c1.8.1,3.3-1.3,3.4-3,0-.1,0-.3,0-.4,0-5.5,4.6-10,10.1-9.9,0,0,.1,0,.2,0h9.9l-5.1,6.2c-12,14.3-20.6,31-25.4,49-.1,1,.1,1.9.7,2.7.7.8,1.7,1.3,2.7,1.4h44.6c1.8.1,3.3-1.3,3.4-3,0-.1,0-.3,0-.4,0-18.9,5.1-37.5,14.7-53.8l12-20.6c1-1,.7-2.4,0-3.8Z"/>
      </g>
    </g>
  </g>
</svg>