<?xml version="1.0" encoding="UTF-8"?>
<svg id="_圖層_1" xmlns="http://www.w3.org/2000/svg" version="1.1" viewBox="0 0 841.9 595.3">
  <!-- Generator: Adobe Illustrator 29.0.1, SVG Export Plug-In . SVG Version: 2.1.0 Build 192)  -->
  <defs>
    <style>
      .st0 {
        fill: none;
        stroke: #921d22;
        stroke-width: 2px;
      }

      .st1 {
        fill: #921d22;
        fill-rule: evenodd;
      }

      .st2 {
        fill: #460407;
      }
    </style>
  </defs>
  <g id="Rectangle_76">
    <rect class="st2" x="359.3" y="235.7" width="124" height="124"/>
    <rect class="st0" x="360.3" y="236.7" width="122" height="122"/>
  </g>
  <path class="st1" d="M396.6,310.1l-6.9,6.9c-3.5,3.5-8.2,5.4-13.1,5.4h-4.7v-49.5h4.7c4.9,0,9.6,2,13.1,5.4l6.9,6.9,18.6-12.4v-18.6h12.4l43.3,37.1v12.4l-43.3,37.1h-12.4v-18.6l-18.6-12.4ZM452.2,291.5c0,3.4-2.8,6.2-6.2,6.2s-6.2-2.8-6.2-6.2,2.8-6.2,6.2-6.2,6.2,2.8,6.2,6.2Z"/>
</svg>