<?xml version="1.0" encoding="UTF-8"?>
<svg id="_圖層_1" xmlns="http://www.w3.org/2000/svg" version="1.1" viewBox="0 0 24 24">
  <!-- Generator: Adobe Illustrator 29.0.1, SVG Export Plug-In . SVG Version: 2.1.0 Build 192)  -->
  <defs>
    <style>
      .st0 {
        fill: #fff;
      }
    </style>
  </defs>
  <path id="Union_14" class="st0" d="M7,21.9c-2.8,0-5-2.6-5-5.9V7.8c0-3.2,1.6-5.4,4.2-5.8h10.6c2.4.3,4,2.3,4.2,5.1,0,.3-.2.6-.5.6h-1.5c-1,0-1.9.5-2.5,1.2-.8.9-1.2,2.1-1.1,3.3,0,2,1.6,3.7,3.7,3.8h1.4c.3,0,.5.3.5.6h0c-.2,3.1-2.2,5.2-5,5.2H7ZM6.3,8.3c0,.4.3.8.8.9h6c.4,0,.8-.4.8-.9s-.3-.8-.8-.9h-6c-.4,0-.8.4-.8.9ZM19.1,14.3c-1.2,0-2.1-1-2.2-2.2,0-.7.2-1.4.6-1.9.3-.4.9-.7,1.4-.7h2.1c.6,0,1,.6,1,1.2v2.4c0,.6-.4,1.1-1,1.2h-2,.1Z"/>
</svg>